<mxfile host="app.diagrams.net" modified="2024-01-31T18:08:26.479Z" agent="Mozilla/5.0 (Windows NT 10.0; Win64; x64) AppleWebKit/537.36 (KHTML, like Gecko) Chrome/122.0.0.0 Safari/537.36 Edg/122.0.0.0" version="23.0.2" etag="M2Lyfw4Dl4Mh-V2yqabq" type="github">
  <diagram name="Page-1" id="sLfl9Rdm5IvDM6LtMC9p">
    <mxGraphModel>
      <root>
        <mxCell id="0" />
        <mxCell id="1" parent="0" />
      </root>
    </mxGraphModel>
  </diagram>
</mxfile>
